<svg width="31" height="36" xmlns="http://www.w3.org/2000/svg"><path d="M30.166 32.298l-7.924-8.096a2.974 2.974 0 00-2.27-1.027l-2.855-.13-1.867-.084c-.233-.01-.483-.046-.714-.005-.382.068-.639.353-.928.579l-1.238.967-1.594 1.244c-.555.433-1.777 1.016-1.057 1.764.687.714 1.376 1.254 2.454 1.254h7.609l7.272 6.64c.436.399.996.596 1.556.596.593 0 1.185-.222 1.627-.664a2.081 2.081 0 00-.07-3.038zM10.428 12.304s-.031-.018-.029-.011a3.027 3.027 0 00-1.829-.14 3.08 3.08 0 00-1.686 1.072c-.16.204-.294.453-.383.693a2.793 2.793 0 00-.065 1.622l.71 2.724a25989.44 25989.44 0 001.522 5.835c.034.127.051.276.104.397.252.57.786-.02 1.046-.224l1.07-.835 2.214-1.728c.252-.197.645-.44.716-.768.066-.306-.105-.632-.181-.924l-.251-.962.766.339c.397.175.838.236 1.27.178l5.704-.788c1.232-.17 2.085-1.26 1.907-2.435-.179-1.175-1.326-1.988-2.551-1.82l-5.042.697-4.319-2.518a2.928 2.928 0 00-.693-.404zm7.224 17.268H8.923l-.463-2.019-.433-1.883L5.34 13.975c-.266-1.16-1.468-1.893-2.681-1.64-1.215.255-1.984 1.4-1.718 2.56l3.971 17.287c.226.986 1.142 1.688 2.2 1.688h10.54c1.243 0 2.251-.961 2.251-2.149.001-1.187-1.007-2.149-2.25-2.149zM2.045 5.876c.114.067.233.127.35.19l.843.46.746.407c.33.18.578.06.866-.128.18-.116.358-.232.536-.349l1.44-.938 3.21-2.09 1.061-.691c.11-.071.3-.168.36-.287l.006-.014c.046-.11-.004-.245-.03-.353l-.18-.762c-.064-.271-.132-.542-.19-.814-.064-.295-.244-.302-.497-.149L10.169.6l-1.115.676a7569.422 7569.422 0 00-6.017 3.647c-.301.183-.603.364-.903.547-.184.112-.358.248-.089.407zm5.155.416L6.112 7l-.55.359-.276.179c-.091.06-.158.08-.143.19l.002.016c.01.09.011.18.018.27a3.738 3.738 0 00.512 1.62 4.026 4.026 0 001.65 1.528 4.16 4.16 0 001.83.438c2.187.015 4.067-1.769 4.064-3.857 0-.333-.05-.665-.144-.985a3.788 3.788 0 00-.591-1.173 4.08 4.08 0 00-.688-.723c-.098-.083-.021-.12.068-.175l.22-.138.441-.276c.181-.113.365-.224.545-.34.209-.134.292-.257.03-.387l-.413-.208c-.29-.145-.465-.314-.772-.117l-.4.26-1.223.797L7.2 6.292zm13.26 15.393a.92.92 0 00.633.248.919.919 0 00.64-.255l8.373-8.082a.832.832 0 00-.008-1.215.931.931 0 00-1.273.006l-8.372 8.082a.832.832 0 00.007 1.216z" fill="#000" fill-rule="evenodd" fill-opacity=".2"/></svg>